<svg viewBox="65 50 520 210" fill="none" xmlns="http://www.w3.org/2000/svg">
  <ellipse cx="322" cy="242" rx="212" ry="7" fill="#0F2439" opacity="0.18"/>
  <path d="M92 195 L87 176 L103 159 L168 142 L198 136 L232 86 L382 84 L418 88 L448 130 L460 138 L500 138 L532 152 L554 167 L560 181 L562 195 L496 195 A26 26 0 0 1 444 195 L198 195 A26 26 0 0 1 146 195 Z" fill="#0F2439"/>
  <path d="M202 140 L235 90 L310 88 L310 138 Z M314 88 L378 86 L414 90 L444 128 L314 138 Z" fill="#4DB8D9"/>
  <line x1="103" y1="161" x2="554" y2="167" stroke="#1A5276" stroke-width="1.2" opacity="0.4"/>
  <line x1="312" y1="138" x2="310" y2="195" stroke="#1A5276" stroke-width="1" opacity="0.3"/>
  <rect x="84" y="172" width="14" height="8" rx="2" fill="#5DADE2" opacity="0.55"/>
  <rect x="552" y="165" width="8" height="14" rx="2" fill="#E74C3C" opacity="0.5"/>
  <circle cx="172" cy="215" r="22" fill="#081C2E"/>
  <circle cx="172" cy="215" r="14" fill="#1E5B78"/>
  <circle cx="172" cy="215" r="5" fill="#2A8CAD"/>
  <circle cx="470" cy="215" r="22" fill="#081C2E"/>
  <circle cx="470" cy="215" r="14" fill="#1E5B78"/>
  <circle cx="470" cy="215" r="5" fill="#2A8CAD"/>
</svg>
